<svg xmlns="http://www.w3.org/2000/svg" width="1200" height="630" viewBox="0 0 1200 630" role="img" aria-labelledby="title desc">
  <title id="title">amux — local tmux workspaces for Amp</title>
  <desc id="desc">A navy and red social preview card for amux, showing lifecycle verbs and a terminal panel.</desc>
  <defs>
    <linearGradient id="wash" x1="0" y1="0" x2="1" y2="1">
      <stop offset="0" stop-color="#1d2638" />
      <stop offset="0.5" stop-color="#161e2e" />
      <stop offset="1" stop-color="#10141f" />
    </linearGradient>
    <radialGradient id="red-glow" cx="0" cy="0" r="1" gradientUnits="userSpaceOnUse" gradientTransform="translate(158 116) rotate(40) scale(540 430)">
      <stop offset="0" stop-color="#f05252" stop-opacity="0.36" />
      <stop offset="0.55" stop-color="#f05252" stop-opacity="0.1" />
      <stop offset="1" stop-color="#f05252" stop-opacity="0" />
    </radialGradient>
    <radialGradient id="white-glow" cx="0" cy="0" r="1" gradientUnits="userSpaceOnUse" gradientTransform="translate(1010 80) rotate(128) scale(460 360)">
      <stop offset="0" stop-color="#ffffff" stop-opacity="0.16" />
      <stop offset="0.65" stop-color="#ffffff" stop-opacity="0.04" />
      <stop offset="1" stop-color="#ffffff" stop-opacity="0" />
    </radialGradient>
    <pattern id="mesh" width="58" height="58" patternUnits="userSpaceOnUse" patternTransform="rotate(30)">
      <path d="M0 0H58" stroke="#ffffff" stroke-opacity="0.16" stroke-width="1" />
    </pattern>
    <filter id="shadow" x="70" y="44" width="1060" height="548" color-interpolation-filters="sRGB">
      <feDropShadow dx="0" dy="28" stdDeviation="34" flood-color="#000000" flood-opacity="0.42" />
    </filter>
  </defs>

  <rect width="1200" height="630" fill="#161e2e" />
  <rect width="1200" height="630" fill="url(#wash)" />
  <rect width="1200" height="630" fill="url(#red-glow)" />
  <rect width="1200" height="630" fill="url(#white-glow)" />
  <rect width="1200" height="630" fill="url(#mesh)" opacity="0.34" />
  <rect width="1200" height="630" fill="url(#wash)" opacity="0.72" />

  <g filter="url(#shadow)">
    <rect x="86" y="78" width="1028" height="474" fill="#141b29" stroke="#ffffff" stroke-opacity="0.12" />
    <rect x="112" y="104" width="976" height="422" fill="#161e2e" stroke="#ffffff" stroke-opacity="0.08" />
  </g>

  <g transform="translate(154 142)">
    <g transform="scale(0.425)">
      <path d="M80 154.217C120.989 154.217 154.217 120.989 154.217 80C154.217 39.011 120.989 5.783 80 5.783C39.011 5.783 5.783 39.011 5.783 80C5.783 120.989 39.011 154.217 80 154.217Z" fill="#ffffff" />
      <path d="M152.064 80.719C151.935 92.461 149.109 103.593 144.189 113.504L17.844 42.81C30.994 21.951 53.953 7.94 79.934 7.651C120.219 7.202 152.513 39.916 152.064 80.719Z" fill="#f05252" />
      <path d="M160 80C160 124.183 124.183 160 80 160C35.817 160 0 124.183 0 80C0 35.817 35.817 0 80 0C124.183 0 160 35.817 160 80ZM143.63 111.4C148.31 101.934 150.94 91.274 150.94 80C150.94 40.821 119.179 9.06 80 9.06C54.733 9.06 32.551 22.27 19.984 42.16L143.63 111.4ZM139.841 118.116C127.243 137.852 105.15 150.94 80 150.94C40.821 150.94 9.06 119.179 9.06 80C9.06 68.842 11.636 58.286 16.226 48.893L139.841 118.116Z" fill="#252f3f" fill-rule="evenodd" />
      <path d="M40.482 33.735V143.615H47.631V110.276H126.265V101.99L107.465 76.455L126.265 50.921V42.635H47.631V33.735H40.482ZM118.258 49.755L98.6 76.455L118.258 103.156H47.631V49.755H118.258Z" fill="#252f3f" />
      <path d="M118.259 49.755L98.6 76.455L118.259 103.155H47.631V49.755H118.259Z" fill="#ffffff" />
      <path d="M79.929 60.723C80.022 60.75 80.108 60.794 80.183 60.853C80.258 60.913 80.321 60.986 80.367 61.069C80.414 61.153 80.443 61.245 80.454 61.339C80.464 61.434 80.456 61.53 80.429 61.621L72.115 89.948C72.088 90.04 72.044 90.125 71.984 90.2C71.924 90.274 71.849 90.336 71.765 90.382C71.681 90.428 71.588 90.457 71.493 90.467C71.397 90.477 71.3 90.469 71.208 90.442L67.493 89.376C67.4 89.35 67.314 89.306 67.239 89.246C67.164 89.187 67.101 89.113 67.055 89.03C67.008 88.947 66.979 88.855 66.968 88.76C66.958 88.666 66.966 88.57 66.993 88.478L75.307 60.151C75.334 60.059 75.378 59.974 75.438 59.9C75.498 59.825 75.573 59.764 75.657 59.718C75.741 59.672 75.834 59.643 75.929 59.632C76.025 59.622 76.122 59.63 76.214 59.657L79.929 60.723Z" fill="#252f3f" />
      <path d="M94.228 68.132L85.7 59.72C85.562 59.585 85.379 59.513 85.19 59.518C85.002 59.524 84.824 59.608 84.694 59.751L82.119 62.64C82.054 62.713 82.004 62.799 81.971 62.893C81.938 62.987 81.924 63.086 81.928 63.186C81.933 63.286 81.956 63.384 81.997 63.474C82.038 63.564 82.096 63.644 82.167 63.711L87.527 68.676L82.166 73.635C82.094 73.701 82.036 73.781 81.994 73.871C81.953 73.961 81.929 74.059 81.925 74.159C81.92 74.259 81.935 74.359 81.968 74.453C82.002 74.547 82.053 74.633 82.118 74.705L84.692 77.592C84.756 77.664 84.832 77.723 84.918 77.764C85.003 77.804 85.094 77.827 85.188 77.831C85.281 77.834 85.375 77.818 85.462 77.784C85.55 77.749 85.63 77.697 85.698 77.63L94.226 69.223C94.298 69.154 94.355 69.07 94.395 68.976C94.434 68.882 94.454 68.781 94.454 68.678C94.454 68.576 94.434 68.474 94.395 68.38C94.356 68.286 94.299 68.202 94.228 68.132Z" fill="#252f3f" />
      <path d="M63.213 59.754L65.787 62.642C65.853 62.715 65.904 62.801 65.938 62.895C65.971 62.989 65.986 63.089 65.981 63.19C65.977 63.29 65.953 63.388 65.911 63.479C65.869 63.569 65.81 63.649 65.738 63.715L60.376 68.676L65.739 73.635C65.811 73.701 65.868 73.781 65.91 73.871C65.951 73.962 65.974 74.059 65.979 74.159C65.983 74.259 65.968 74.359 65.936 74.453C65.903 74.546 65.852 74.632 65.787 74.705L63.213 77.593C63.149 77.666 63.072 77.724 62.987 77.765C62.902 77.806 62.81 77.828 62.716 77.831C62.622 77.834 62.529 77.817 62.442 77.782C62.354 77.746 62.274 77.693 62.207 77.625L53.678 69.215C53.607 69.146 53.55 69.061 53.511 68.968C53.472 68.874 53.452 68.773 53.452 68.67C53.452 68.568 53.472 68.467 53.511 68.373C53.55 68.28 53.607 68.195 53.678 68.126L62.207 59.723C62.275 59.655 62.355 59.602 62.442 59.567C62.529 59.532 62.622 59.515 62.716 59.518C62.809 59.521 62.901 59.543 62.987 59.584C63.072 59.624 63.149 59.682 63.213 59.754Z" fill="#252f3f" />
    </g>
    <text x="88" y="43" font-family="Inter, ui-sans-serif, system-ui, -apple-system, BlinkMacSystemFont, Segoe UI, sans-serif" font-size="32" font-weight="800" letter-spacing="-1.4" fill="#ffffff">amux</text>
    <path d="M182 14V54" stroke="#ffffff" stroke-opacity="0.18" />
    <text x="204" y="41" font-family="Inter, ui-sans-serif, system-ui, -apple-system, BlinkMacSystemFont, Segoe UI, sans-serif" font-size="21" font-weight="500" fill="#ffffff" opacity="0.62">local tmux workspaces for Amp</text>
  </g>

  <g transform="translate(154 270)">
    <text font-family="Inter, ui-sans-serif, system-ui, -apple-system, BlinkMacSystemFont, Segoe UI, sans-serif" font-size="68" font-weight="800" letter-spacing="-4" fill="#ffffff">Pin. Launch.</text>
    <text y="72" font-family="Inter, ui-sans-serif, system-ui, -apple-system, BlinkMacSystemFont, Segoe UI, sans-serif" font-size="68" font-weight="800" letter-spacing="-4" fill="#ffffff">Park. </text>
    <text x="180" y="72" font-family="Inter, ui-sans-serif, system-ui, -apple-system, BlinkMacSystemFont, Segoe UI, sans-serif" font-size="68" font-weight="800" letter-spacing="-4" fill="#f05252">Teardown.</text>
    <text y="136" font-family="Inter, ui-sans-serif, system-ui, -apple-system, BlinkMacSystemFont, Segoe UI, sans-serif" font-size="25" font-weight="500" fill="#ffffff" opacity="0.72">Workers and runners. One workspace.</text>
  </g>

  <g transform="translate(750 164)">
    <rect width="310" height="296" fill="#10141f" stroke="#ffffff" stroke-opacity="0.14" />
    <rect width="310" height="48" fill="#141b29" />
    <circle cx="28" cy="24" r="5" fill="#ffffff" opacity="0.16" />
    <circle cx="48" cy="24" r="5" fill="#ffffff" opacity="0.16" />
    <circle cx="68" cy="24" r="5" fill="#f05252" />
    <text x="210" y="30" font-family="SFMono-Regular, Consolas, Liberation Mono, Menlo, monospace" font-size="14" fill="#ffffff" opacity="0.58">tmux · Amp</text>
    <text x="24" y="92" font-family="SFMono-Regular, Consolas, Liberation Mono, Menlo, monospace" font-size="18" fill="#f05252">$</text>
    <text x="48" y="92" font-family="SFMono-Regular, Consolas, Liberation Mono, Menlo, monospace" font-size="15" fill="#d6dbe6">amux worker pin --current</text>
    <text x="48" y="128" font-family="SFMono-Regular, Consolas, Liberation Mono, Menlo, monospace" font-size="17" fill="#ffffff" opacity="0.66">pinned worker T-123</text>
    <text x="24" y="184" font-family="SFMono-Regular, Consolas, Liberation Mono, Menlo, monospace" font-size="18" fill="#f05252">$</text>
    <text x="48" y="184" font-family="SFMono-Regular, Consolas, Liberation Mono, Menlo, monospace" font-size="17" fill="#d6dbe6">amux --dry-run launch</text>
    <text x="48" y="220" font-family="SFMono-Regular, Consolas, Liberation Mono, Menlo, monospace" font-size="17" fill="#ffffff" opacity="0.66">planned worker + runner</text>
    <rect x="48" y="252" width="84" height="8" fill="#f05252" />
  </g>

  <g transform="translate(154 494)">
    <rect width="34" height="5" fill="#f05252" />
    <text x="54" y="8" font-family="SFMono-Regular, Consolas, Liberation Mono, Menlo, monospace" font-size="23" fill="#ffffff" opacity="0.58">amux.zainf.dev</text>
  </g>
</svg>
